<svg xmlns="http://www.w3.org/2000/svg" xmlns:xlink="http://www.w3.org/1999/xlink" width="300" zoomAndPan="magnify" viewBox="0 0 224.87999 149.999998" height="200" preserveAspectRatio="xMidYMid meet" version="1.0"><path fill="#ffe100" d="M 88.109375 104.902344 C 63.054688 110.496094 40.78125 99.203125 38.359375 79.671875 C 37.09375 69.5 41.46875 59.105469 49.484375 50.683594 C 39 59.949219 32.910156 71.851562 34.183594 83.167969 C 36.363281 102.582031 59.347656 112.941406 85.523438 106.308594 C 90.175781 105.128906 94.613281 103.492188 98.757812 101.492188 C 95.382812 102.917969 91.820312 104.070312 88.109375 104.902344 Z M 88.109375 104.902344 " fill-opacity="1" fill-rule="nonzero"/><path fill="#0a2c87" d="M 84.449219 33.722656 C 109.535156 32.199219 130.542969 47.175781 131.378906 67.167969 C 131.820312 77.582031 126.691406 87.300781 118.140625 94.441406 C 129.1875 86.851562 136.121094 75.90625 135.765625 64.339844 C 135.160156 44.507812 113.375 30.351562 87.101562 32.734375 C 82.429688 33.15625 77.9375 34.078125 73.699219 35.410156 C 77.128906 34.527344 80.726562 33.949219 84.441406 33.722656 Z M 84.449219 33.722656 " fill-opacity="1" fill-rule="nonzero"/><path fill="#0a2c87" d="M 92.246094 25.324219 C 41.269531 27.71875 7.28125 78.933594 49.789062 113.414062 C -0.679688 94.886719 25.960938 22.492188 92.246094 25.324219 Z M 92.246094 25.324219 " fill-opacity="1" fill-rule="nonzero"/><path fill="#0a2c87" d="M 49.691406 55.734375 C 44.449219 62.613281 41.742188 70.492188 42.664062 78.175781 C 44.777344 95.777344 67.082031 107.445312 89.316406 100.027344 C 45 102.726562 39.875 69.96875 49.691406 55.734375 Z M 49.691406 55.734375 " fill-opacity="1" fill-rule="nonzero"/><path fill="#ffe100" d="M 136.660156 44.242188 C 126.996094 31.925781 96.710938 11.179688 64.878906 22.683594 C 83.492188 13.445312 113.121094 8.019531 136.660156 44.242188 Z M 136.660156 44.242188 " fill-opacity="1" fill-rule="nonzero"/><path fill="#0a2c87" d="M 119.539062 17.730469 C 145.835938 25.234375 163.703125 72.835938 109.632812 107.894531 C 151.636719 95.734375 167.714844 26.773438 119.539062 17.730469 Z M 119.539062 17.730469 " fill-opacity="1" fill-rule="nonzero"/><path fill="#173077" d="M 92.234375 51.078125 L 91.898438 49.734375 C 91.476562 48.058594 89.699219 47.046875 87.945312 47.484375 L 80.8125 49.28125 L 77.003906 34.15625 C 76.621094 32.636719 75.03125 31.734375 73.445312 32.132812 C 71.859375 32.53125 70.886719 34.082031 71.269531 35.601562 L 75.074219 50.722656 L 67.941406 52.519531 C 66.1875 52.957031 65.101562 54.691406 65.523438 56.367188 L 65.863281 57.710938 C 60.308594 61.191406 56.84375 65.539062 56.777344 69.597656 L 105.863281 57.238281 C 103.878906 53.699219 98.773438 51.511719 92.234375 51.074219 Z M 92.234375 51.078125 " fill-opacity="1" fill-rule="nonzero"/><path fill="#173077" d="M 66.726562 87.03125 L 65.300781 89.320312 C 64.628906 90.363281 63.589844 91.105469 62.375 91.417969 C 62.355469 91.421875 62.332031 91.425781 62.308594 91.433594 L 79.023438 98.835938 C 79.886719 99.21875 80.941406 98.921875 81.457031 98.101562 C 82.019531 97.210938 81.742188 96.054688 80.84375 95.515625 Z M 66.726562 87.03125 " fill-opacity="1" fill-rule="nonzero"/><path fill="#173077" d="M 107.6875 78.65625 L 105.351562 77.3125 L 96.929688 91.46875 C 96.394531 92.367188 96.699219 93.519531 97.613281 94.03125 C 98.457031 94.507812 99.527344 94.277344 100.105469 93.523438 L 111.328125 79.085938 C 111.328125 79.085938 111.28125 79.097656 111.257812 79.105469 C 110.039062 79.40625 108.773438 79.246094 107.6875 78.644531 Z M 107.6875 78.65625 " fill-opacity="1" fill-rule="nonzero"/><path fill="#173077" d="M 111.652344 71.90625 C 111.601562 71.878906 111.546875 71.851562 111.496094 71.824219 L 104.332031 68.382812 C 106.667969 65.605469 107.71875 62.683594 107.039062 59.976562 L 57.039062 72.558594 C 57.722656 75.265625 60.03125 77.34375 63.398438 78.683594 L 58.722656 85.101562 C 58.6875 85.148438 58.65625 85.203125 58.621094 85.25 C 57.710938 86.664062 58.144531 88.527344 59.582031 89.402344 C 61.019531 90.28125 62.921875 89.835938 63.832031 88.417969 L 69.019531 80.09375 C 73.714844 80.734375 79.359375 80.402344 85.222656 78.925781 C 91.085938 77.445312 96.21875 75.066406 100.050781 72.277344 L 108.5625 77.160156 C 110.035156 77.980469 111.917969 77.46875 112.773438 76.019531 C 113.625 74.566406 113.121094 72.722656 111.652344 71.902344 Z M 111.652344 71.90625 " fill-opacity="1" fill-rule="nonzero"/><path fill="#ffffff" d="M 198.722656 62.972656 L 200.546875 56.582031 C 201.507812 53.230469 199.558594 49.71875 196.207031 48.761719 L 135.613281 31.429688 C 132.902344 30.652344 130.058594 30.984375 127.589844 32.363281 C 125.140625 33.734375 123.363281 35.964844 122.59375 38.652344 L 105.261719 99.246094 C 103.675781 104.824219 106.914062 110.660156 112.484375 112.261719 L 177.117188 130.746094 C 177.695312 130.910156 178.277344 130.996094 178.863281 130.996094 C 179.925781 130.996094 180.972656 130.726562 181.921875 130.195312 C 183.402344 129.375 184.46875 128.03125 184.9375 126.40625 L 189.5625 110.234375 L 191.5625 110.800781 C 192.6875 111.121094 193.863281 110.46875 194.183594 109.339844 L 200.527344 87.164062 C 200.847656 86.035156 200.195312 84.859375 199.070312 84.539062 L 197.074219 83.96875 L 201.109375 69.851562 C 201.863281 67.214844 200.824219 64.480469 198.710938 62.964844 Z M 191.84375 56.285156 C 191.84375 56.285156 191.84375 56.226562 191.84375 56.199219 L 191.863281 56.199219 C 191.863281 56.199219 191.839844 56.285156 191.839844 56.285156 Z M 191.84375 56.285156 " fill-opacity="1" fill-rule="nonzero"/><path fill="#ffffff" d="M 178.671875 88.105469 C 177.453125 87.757812 176.171875 87.902344 175.058594 88.519531 C 173.949219 89.140625 173.144531 90.144531 172.796875 91.367188 C 172.449219 92.585938 172.59375 93.867188 173.214844 94.980469 C 173.832031 96.09375 174.839844 96.890625 176.058594 97.242188 C 176.492188 97.363281 176.9375 97.425781 177.375 97.425781 C 178.171875 97.425781 178.960938 97.222656 179.671875 96.824219 C 180.78125 96.207031 181.585938 95.199219 181.933594 93.980469 C 182.28125 92.761719 182.136719 91.476562 181.515625 90.371094 C 180.898438 89.261719 179.894531 88.460938 178.671875 88.109375 Z M 177.847656 92.808594 C 177.800781 92.972656 177.6875 93.0625 177.609375 93.109375 C 177.527344 93.152344 177.398438 93.199219 177.226562 93.152344 C 177.066406 93.109375 176.976562 92.996094 176.929688 92.917969 C 176.886719 92.832031 176.839844 92.703125 176.886719 92.535156 C 176.929688 92.367188 177.042969 92.28125 177.121094 92.238281 C 177.175781 92.203125 177.261719 92.175781 177.363281 92.175781 C 177.40625 92.175781 177.453125 92.179688 177.503906 92.199219 C 177.667969 92.242188 177.757812 92.355469 177.800781 92.433594 C 177.847656 92.519531 177.890625 92.648438 177.847656 92.816406 Z M 177.847656 92.808594 " fill-opacity="1" fill-rule="nonzero"/><path fill="#221714" d="M 198.496094 86.585938 L 194.453125 85.429688 L 199.074219 69.269531 C 199.714844 67.039062 198.421875 64.710938 196.191406 64.078125 L 198.5 55.996094 C 199.140625 53.765625 197.847656 51.4375 195.617188 50.804688 L 135.023438 33.46875 C 130.542969 32.1875 125.898438 34.820312 124.632812 39.238281 L 107.300781 99.832031 C 106.03125 104.296875 108.613281 108.941406 113.070312 110.222656 L 177.699219 128.707031 C 179.933594 129.347656 182.257812 128.054688 182.894531 125.824219 L 188.105469 107.609375 L 192.148438 108.753906 L 198.492188 86.582031 Z M 198.496094 86.585938 " fill-opacity="1" fill-rule="nonzero"/><path fill="#f4e427" d="M 178.835938 124.773438 L 114.207031 106.285156 C 111.972656 105.644531 110.6875 103.324219 111.320312 101.089844 L 126.71875 47.253906 C 127.496094 48.46875 128.96875 49.328125 130.46875 49.757812 L 195.011719 68.21875 L 190.390625 84.378906 L 180.292969 81.488281 C 174.160156 79.734375 167.761719 83.28125 166.007812 89.421875 C 164.253906 95.554688 167.800781 101.953125 173.9375 103.707031 L 184.046875 106.566406 L 178.839844 124.773438 Z M 178.835938 124.773438 " fill-opacity="1" fill-rule="nonzero"/><path fill="#f4e427" d="M 179.195312 85.328125 C 175.300781 84.214844 171.273438 86.289062 170.046875 90.578125 C 168.824219 94.867188 171.140625 98.757812 175.035156 99.871094 L 189.1875 103.878906 L 193.335938 89.375 L 179.195312 85.332031 Z M 176.644531 95.195312 C 175.25 94.796875 174.4375 93.339844 174.839844 91.945312 C 175.238281 90.550781 176.695312 89.742188 178.089844 90.140625 C 179.480469 90.539062 180.292969 91.996094 179.894531 93.390625 C 179.492188 94.785156 178.039062 95.59375 176.644531 95.195312 Z M 176.644531 95.195312 " fill-opacity="1" fill-rule="nonzero"/><path fill="#f4e427" d="M 133.90625 37.410156 C 131.683594 36.777344 129.316406 38.164062 128.636719 40.554688 C 128.007812 42.753906 129.105469 45.214844 131.566406 45.921875 L 192.070312 63.226562 L 194.5 54.742188 Z M 188.714844 59.675781 L 134.179688 44.074219 L 135.191406 40.539062 L 189.726562 56.136719 Z M 188.714844 59.675781 " fill-opacity="1" fill-rule="nonzero"/><path fill="#221714" d="M 131.492188 64.3125 C 125.59375 66.886719 121.335938 71.699219 119.753906 77.613281 C 116.753906 88.839844 124.296875 100.648438 136.574219 103.929688 C 148.855469 107.214844 161.289062 100.753906 164.292969 89.527344 C 165.871094 83.613281 164.585938 77.316406 160.761719 72.136719 L 150.859375 83.476562 L 155.441406 84.703125 L 153.988281 90.152344 L 146.386719 88.117188 L 145.851562 90.117188 L 153.453125 92.152344 L 151.996094 97.601562 L 144.394531 95.566406 L 142.527344 102.546875 L 132.117188 99.757812 L 133.984375 92.777344 L 126.382812 90.742188 L 127.839844 85.292969 L 135.46875 87.335938 L 136 85.332031 L 128.371094 83.292969 L 129.828125 77.84375 L 134.410156 79.070312 L 131.492188 64.300781 Z M 131.492188 64.3125 " fill-opacity="1" fill-rule="nonzero"/><path fill="#ffffff" d="M 140.34375 88.257812 L 133.585938 40.367188 L 136.289062 40.542969 C 141.746094 40.890625 147.171875 41.78125 152.417969 43.179688 C 157.71875 44.601562 162.925781 46.570312 167.878906 49.03125 L 170.3125 50.242188 L 140.347656 88.257812 Z M 140.34375 88.257812 " fill-opacity="1" fill-rule="nonzero"/><path fill="#fe004f" d="M 141.59375 82.652344 L 166.6875 50.824219 C 161.976562 48.480469 156.949219 46.546875 151.636719 45.125 C 146.386719 43.71875 141.128906 42.886719 135.941406 42.554688 L 141.59375 82.644531 Z M 141.59375 82.652344 " fill-opacity="1" fill-rule="nonzero"/><path fill="#ffffff" d="M 200.429688 115.6875 C 199.726562 114.847656 198.691406 114.363281 197.597656 114.363281 L 194.144531 114.363281 L 194.15625 114.296875 C 194.347656 113.21875 194.054688 112.117188 193.347656 111.273438 C 192.636719 110.429688 191.597656 109.945312 190.496094 109.945312 L 182.035156 109.945312 C 180.347656 109.945312 178.859375 111.121094 178.402344 112.730469 C 178.289062 112.71875 178.171875 112.710938 178.058594 112.710938 L 172.554688 112.710938 C 172.304688 112.710938 172.054688 112.742188 171.8125 112.792969 C 171.566406 112.742188 171.3125 112.710938 171.0625 112.710938 L 168.824219 112.710938 C 168.5625 112.710938 168.316406 112.746094 168.070312 112.792969 C 167.824219 112.742188 167.5625 112.710938 167.304688 112.710938 L 164.386719 112.710938 C 163.601562 112.710938 162.875 112.964844 162.261719 113.382812 C 161.796875 113.171875 161.277344 113.0625 160.75 113.0625 L 156.78125 113.0625 C 156.675781 112.410156 156.398438 111.796875 155.964844 111.277344 C 155.257812 110.433594 154.222656 109.953125 153.132812 109.953125 L 145.25 109.953125 C 143.46875 109.953125 141.949219 111.175781 141.554688 112.898438 C 141.191406 112.78125 140.8125 112.71875 140.421875 112.71875 L 134.386719 112.71875 C 133.386719 112.71875 132.464844 113.105469 131.785156 113.746094 L 127.78125 113.746094 C 127.636719 113.3125 127.417969 112.902344 127.113281 112.542969 C 126.40625 111.699219 125.375 111.222656 124.28125 111.222656 L 123.296875 111.222656 C 122.59375 110.417969 121.585938 109.957031 120.511719 109.957031 L 112.632812 109.957031 C 111.535156 109.957031 110.515625 110.445312 109.808594 111.222656 L 108.03125 111.222656 C 107.324219 110.417969 106.328125 109.957031 105.273438 109.957031 L 97.390625 109.957031 C 95.769531 109.957031 94.316406 111.027344 93.792969 112.527344 L 89.867188 112.527344 C 89.722656 112.078125 89.496094 111.65625 89.1875 111.285156 C 88.480469 110.441406 87.445312 109.957031 86.335938 109.957031 L 85.421875 109.957031 C 85.210938 109.957031 85.011719 109.980469 84.808594 110.015625 C 84.605469 109.980469 84.402344 109.957031 84.195312 109.957031 L 70.675781 109.957031 C 69.886719 109.957031 69.144531 110.214844 68.519531 110.636719 C 67.902344 110.199219 67.164062 109.957031 66.394531 109.957031 L 59.777344 109.957031 C 59.457031 109.957031 59.148438 110.015625 58.84375 110.09375 C 58.53125 110.007812 58.203125 109.957031 57.871094 109.957031 L 50.34375 109.957031 C 49.832031 109.957031 49.34375 110.074219 48.890625 110.265625 C 48.433594 110.070312 47.945312 109.957031 47.4375 109.957031 L 31.039062 109.957031 C 29.234375 109.957031 27.632812 111.300781 27.3125 113.082031 L 26.574219 117.265625 C 26.519531 117.597656 26.503906 117.929688 26.53125 118.253906 C 26.3125 118.765625 26.210938 119.3125 26.238281 119.871094 L 26.292969 130.324219 C 26.261719 131.226562 26.5625 132.113281 27.152344 132.816406 C 27.867188 133.671875 28.925781 134.160156 30.050781 134.160156 L 38.082031 134.160156 C 39.152344 134.160156 40.167969 133.710938 40.878906 132.917969 C 40.96875 132.816406 41.050781 132.710938 41.128906 132.601562 L 42.441406 132.601562 C 42.816406 132.601562 43.417969 132.546875 44.070312 132.28125 C 44.183594 132.480469 44.300781 132.664062 44.449219 132.839844 C 45.148438 133.675781 46.195312 134.160156 47.308594 134.160156 L 61.160156 134.160156 C 62.140625 134.160156 63.078125 133.824219 63.808594 133.214844 C 64.484375 133.816406 65.355469 134.160156 66.277344 134.160156 L 80.441406 134.160156 C 81.03125 134.160156 82.171875 134.03125 83.160156 133.1875 L 85.335938 131.34375 C 86.042969 130.742188 86.554688 129.898438 86.753906 129.011719 L 86.613281 129.816406 C 86.421875 130.886719 86.714844 131.984375 87.417969 132.816406 C 88.128906 133.671875 89.1875 134.160156 90.3125 134.160156 L 98.15625 134.160156 C 99.699219 134.160156 101.042969 133.222656 101.628906 131.84375 C 101.769531 132.203125 101.972656 132.542969 102.226562 132.84375 C 102.925781 133.683594 103.960938 134.160156 105.0625 134.160156 L 119.226562 134.160156 C 119.816406 134.160156 120.957031 134.03125 121.980469 133.160156 L 122.210938 132.960938 C 122.917969 133.722656 123.898438 134.160156 124.9375 134.160156 L 128.34375 134.160156 C 128.753906 134.160156 129.441406 134.097656 130.160156 133.765625 C 130.675781 134.023438 131.25 134.160156 131.847656 134.160156 L 137.878906 134.160156 C 138.667969 134.160156 139.410156 133.890625 140.03125 133.457031 C 140.664062 133.90625 141.421875 134.160156 142.226562 134.160156 L 156.039062 134.160156 C 156.628906 134.160156 157.769531 134.03125 158.738281 133.210938 L 159.078125 132.921875 C 159.777344 133.710938 160.777344 134.160156 161.847656 134.160156 L 173.675781 134.160156 C 174.140625 134.160156 175.332031 134.066406 176.375 133.175781 L 176.433594 133.125 C 177.121094 133.789062 178.039062 134.160156 179.011719 134.160156 L 187.472656 134.160156 C 189.320312 134.160156 190.894531 132.84375 191.214844 131.027344 L 191.546875 129.15625 L 196.234375 129.15625 C 198.085938 129.15625 199.660156 127.839844 199.980469 126.03125 L 201.265625 118.726562 C 201.457031 117.644531 201.15625 116.535156 200.445312 115.691406 Z M 136.542969 119.785156 C 136.542969 119.785156 136.523438 119.738281 136.519531 119.71875 L 136.570312 119.71875 C 136.570312 119.71875 136.554688 119.761719 136.542969 119.785156 Z M 136.542969 119.785156 " fill-opacity="1" fill-rule="nonzero"/><path fill="#221714" d="M 199.324219 116.621094 C 198.894531 116.109375 198.265625 115.816406 197.597656 115.816406 L 192.417969 115.816406 L 192.726562 114.050781 C 192.847656 113.394531 192.664062 112.722656 192.234375 112.210938 C 191.800781 111.699219 191.164062 111.402344 190.488281 111.402344 L 182.027344 111.402344 C 180.914062 111.402344 179.925781 112.230469 179.730469 113.335938 L 179.492188 114.6875 C 179.09375 114.355469 178.59375 114.164062 178.054688 114.164062 L 172.550781 114.164062 C 172.28125 114.164062 172.027344 114.214844 171.785156 114.296875 C 171.550781 114.21875 171.308594 114.164062 171.054688 114.164062 L 168.816406 114.164062 C 168.546875 114.164062 168.289062 114.214844 168.042969 114.296875 C 167.804688 114.21875 167.558594 114.164062 167.300781 114.164062 L 164.382812 114.164062 C 163.566406 114.164062 162.835938 114.589844 162.417969 115.253906 C 161.996094 114.785156 161.394531 114.511719 160.75 114.511719 L 155.925781 114.511719 C 155.691406 114.511719 155.460938 114.550781 155.246094 114.617188 L 155.347656 114.050781 C 155.464844 113.394531 155.285156 112.722656 154.859375 112.210938 C 154.425781 111.695312 153.796875 111.402344 153.132812 111.402344 L 145.25 111.402344 C 144.101562 111.402344 143.128906 112.210938 142.933594 113.335938 L 142.523438 115.664062 C 142.433594 115.417969 142.316406 115.179688 142.140625 114.972656 C 141.714844 114.460938 141.085938 114.167969 140.421875 114.167969 L 134.386719 114.167969 C 133.585938 114.167969 132.863281 114.566406 132.4375 115.199219 L 127.339844 115.199219 C 127.039062 115.199219 126.753906 115.257812 126.484375 115.367188 L 126.496094 115.308594 C 126.609375 114.652344 126.425781 113.984375 126 113.476562 C 125.566406 112.964844 124.941406 112.667969 124.28125 112.667969 L 122.53125 112.667969 C 122.453125 112.503906 122.351562 112.347656 122.234375 112.207031 C 121.804688 111.695312 121.175781 111.402344 120.511719 111.402344 L 112.632812 111.402344 C 111.75 111.402344 110.945312 111.914062 110.546875 112.667969 L 107.875 112.667969 C 107.679688 112.667969 107.492188 112.699219 107.3125 112.746094 C 107.226562 112.5625 107.128906 112.378906 106.992188 112.21875 C 106.558594 111.699219 105.933594 111.402344 105.277344 111.402344 L 97.394531 111.402344 C 96.269531 111.402344 95.277344 112.230469 95.078125 113.335938 L 94.96875 113.972656 L 88.582031 113.972656 C 88.671875 113.34375 88.496094 112.707031 88.078125 112.210938 C 87.648438 111.695312 87.015625 111.402344 86.335938 111.402344 L 85.421875 111.402344 C 85.207031 111.402344 85.003906 111.441406 84.808594 111.496094 C 84.609375 111.441406 84.410156 111.402344 84.195312 111.402344 L 70.675781 111.402344 C 69.722656 111.402344 68.847656 112.003906 68.476562 112.839844 C 68.386719 112.617188 68.273438 112.398438 68.117188 112.207031 C 67.6875 111.695312 67.058594 111.402344 66.394531 111.402344 L 59.777344 111.402344 C 59.445312 111.402344 59.125 111.480469 58.835938 111.617188 C 58.535156 111.480469 58.210938 111.402344 57.871094 111.402344 L 50.34375 111.402344 C 49.792969 111.402344 49.269531 111.605469 48.859375 111.9375 C 48.457031 111.597656 47.960938 111.402344 47.4375 111.402344 L 31.039062 111.402344 C 29.925781 111.402344 28.9375 112.230469 28.738281 113.335938 L 28.003906 117.519531 C 27.945312 117.851562 27.957031 118.1875 28.035156 118.503906 C 27.777344 118.902344 27.660156 119.363281 27.683594 119.824219 L 27.738281 130.359375 C 27.710938 130.917969 27.894531 131.460938 28.257812 131.894531 C 28.695312 132.421875 29.347656 132.722656 30.042969 132.722656 L 38.078125 132.722656 C 38.734375 132.722656 39.359375 132.445312 39.792969 131.960938 C 40 131.730469 40.15625 131.457031 40.253906 131.164062 L 42.433594 131.164062 C 42.75 131.164062 43.554688 131.101562 44.238281 130.523438 L 45.128906 129.746094 L 45.070312 130.074219 C 44.953125 130.738281 45.128906 131.410156 45.554688 131.917969 C 45.980469 132.429688 46.625 132.722656 47.304688 132.722656 L 61.15625 132.722656 C 61.820312 132.722656 62.421875 132.5 62.898438 132.097656 L 64.101562 131.074219 C 64.1875 131.382812 64.332031 131.667969 64.539062 131.921875 C 64.96875 132.429688 65.597656 132.722656 66.273438 132.722656 L 80.433594 132.722656 C 80.75 132.722656 81.558594 132.660156 82.214844 132.097656 L 84.390625 130.246094 C 84.886719 129.824219 85.253906 129.207031 85.359375 128.589844 L 85.902344 125.511719 C 86.246094 125.714844 86.636719 125.835938 87.046875 125.835938 L 88.777344 125.835938 L 88.027344 130.074219 C 87.910156 130.726562 88.089844 131.386719 88.519531 131.894531 C 88.957031 132.421875 89.609375 132.722656 90.304688 132.722656 L 98.148438 132.722656 C 99.285156 132.722656 100.25 131.910156 100.449219 130.785156 L 101.320312 125.828125 C 101.933594 125.800781 102.550781 125.5625 102.996094 125.1875 L 103.820312 124.484375 L 102.835938 130.074219 C 102.71875 130.738281 102.894531 131.410156 103.320312 131.921875 C 103.75 132.429688 104.378906 132.722656 105.050781 132.722656 L 119.214844 132.722656 C 119.53125 132.722656 120.339844 132.660156 121.019531 132.082031 L 122.667969 130.640625 C 122.707031 131.101562 122.875 131.539062 123.179688 131.898438 C 123.609375 132.410156 124.261719 132.722656 124.921875 132.722656 L 128.328125 132.722656 C 128.644531 132.722656 129.453125 132.660156 130.132812 132.082031 L 130.183594 132.035156 C 130.605469 132.472656 131.199219 132.722656 131.832031 132.722656 L 137.863281 132.722656 C 138.839844 132.722656 139.722656 132.082031 140.054688 131.175781 C 140.144531 131.4375 140.269531 131.691406 140.453125 131.910156 C 140.882812 132.421875 141.523438 132.714844 142.207031 132.714844 L 156.023438 132.714844 C 156.335938 132.714844 157.144531 132.652344 157.792969 132.101562 L 159.585938 130.605469 C 159.613281 131.085938 159.789062 131.546875 160.097656 131.917969 C 160.523438 132.421875 161.15625 132.714844 161.828125 132.714844 L 173.65625 132.714844 C 173.894531 132.714844 174.71875 132.671875 175.410156 132.082031 L 176.796875 130.894531 C 176.867188 131.265625 177.019531 131.617188 177.265625 131.917969 C 177.695312 132.421875 178.324219 132.714844 179 132.714844 L 187.460938 132.714844 C 188.605469 132.714844 189.578125 131.90625 189.777344 130.78125 L 190.316406 127.710938 L 196.21875 127.710938 C 197.367188 127.710938 198.339844 126.902344 198.535156 125.777344 L 199.824219 118.476562 C 199.933594 117.8125 199.753906 117.136719 199.316406 116.621094 Z M 48.4375 120.890625 L 48.597656 119.988281 C 48.882812 120.109375 49.191406 120.179688 49.511719 120.179688 L 56.25 120.179688 L 56.125 120.875 L 48.664062 120.875 C 48.585938 120.875 48.511719 120.886719 48.433594 120.898438 Z M 48.4375 120.890625 " fill-opacity="1" fill-rule="nonzero"/><path fill="#f4e427" d="M 47.433594 113.453125 C 47.527344 113.453125 47.640625 113.589844 47.625 113.691406 L 45.335938 126.667969 C 45.308594 126.824219 45.179688 127.015625 45.070312 127.054688 L 42.882812 128.960938 C 42.773438 129.054688 42.570312 129.09375 42.433594 129.09375 L 38.542969 129.09375 C 38.449219 129.09375 38.324219 129.253906 38.300781 129.347656 L 38.300781 130.417969 C 38.324219 130.550781 38.207031 130.652344 38.070312 130.652344 L 30.039062 130.652344 C 29.902344 130.652344 29.761719 130.554688 29.785156 130.417969 L 29.730469 119.71875 C 29.707031 119.621094 29.832031 119.480469 29.964844 119.480469 L 38 119.480469 C 38.132812 119.480469 38.269531 119.617188 38.253906 119.71875 L 38.292969 121.140625 C 38.269531 121.273438 38.386719 121.371094 38.484375 121.371094 L 40.292969 121.371094 C 40.429688 121.371094 40.546875 121.273438 40.566406 121.140625 L 41.058594 118.355469 C 41.078125 118.222656 41 118.121094 40.867188 118.121094 L 30.207031 118.121094 C 30.070312 118.121094 29.992188 118.023438 30.015625 117.867188 L 30.753906 113.683594 C 30.769531 113.589844 30.894531 113.449219 31.027344 113.449219 L 47.425781 113.449219 Z M 66.390625 113.453125 C 66.523438 113.453125 66.597656 113.589844 66.582031 113.691406 L 64.019531 128.222656 C 63.988281 128.382812 63.917969 128.570312 63.816406 128.613281 L 61.570312 130.515625 C 61.460938 130.613281 61.3125 130.652344 61.160156 130.652344 L 47.308594 130.652344 C 47.152344 130.652344 47.074219 130.554688 47.09375 130.417969 L 48.371094 123.179688 C 48.398438 123.023438 48.511719 122.925781 48.667969 122.925781 L 57.621094 122.925781 C 57.753906 122.925781 57.871094 122.832031 57.894531 122.691406 L 59.488281 113.683594 C 59.503906 113.589844 59.625 113.449219 59.777344 113.449219 L 66.394531 113.449219 Z M 57.34375 117.867188 C 57.316406 118.023438 57.203125 118.121094 57.046875 118.121094 L 49.519531 118.121094 C 49.359375 118.121094 49.28125 118.023438 49.3125 117.867188 L 50.046875 113.683594 C 50.0625 113.589844 50.1875 113.449219 50.339844 113.449219 L 57.867188 113.449219 C 58.023438 113.449219 58.097656 113.582031 58.082031 113.683594 Z M 83.746094 117.441406 C 83.722656 117.574219 83.839844 117.671875 83.9375 117.671875 L 84.910156 117.671875 C 85.066406 117.671875 85.171875 117.828125 85.152344 117.964844 L 83.339844 128.21875 C 83.3125 128.375 83.183594 128.566406 83.066406 128.667969 L 80.890625 130.515625 C 80.777344 130.613281 80.574219 130.652344 80.441406 130.652344 L 66.277344 130.652344 C 66.144531 130.652344 66.0625 130.554688 66.085938 130.417969 L 67.148438 124.382812 C 67.167969 124.289062 67.289062 124.148438 67.425781 124.148438 L 76.667969 124.148438 C 76.824219 124.148438 76.9375 124.050781 76.964844 123.894531 L 77.140625 122.921875 C 77.160156 122.785156 77.09375 122.628906 76.9375 122.628906 L 74.796875 122.628906 C 74.699219 122.628906 74.574219 122.535156 74.605469 122.394531 L 75.121094 119.476562 C 75.148438 119.316406 75.300781 119.222656 75.402344 119.222656 L 77.542969 119.222656 C 77.703125 119.222656 77.820312 119.085938 77.835938 118.988281 L 78.003906 118.015625 C 78.035156 117.855469 77.953125 117.761719 77.796875 117.761719 L 74.585938 117.761719 C 74.453125 117.761719 74.277344 117.855469 74.25 118.015625 L 73.804688 120.542969 C 73.78125 120.679688 73.710938 120.875 73.59375 120.972656 L 71.589844 122.625 C 71.476562 122.71875 71.320312 122.820312 71.167969 122.820312 L 67.667969 122.820312 C 67.53125 122.820312 67.453125 122.726562 67.476562 122.585938 L 68.273438 118.054688 C 68.296875 117.917969 68.417969 117.761719 68.558594 117.761719 L 69.398438 117.761719 C 69.53125 117.761719 69.652344 117.664062 69.671875 117.53125 L 70.355469 113.679688 C 70.371094 113.582031 70.550781 113.441406 70.683594 113.441406 L 84.207031 113.441406 C 84.363281 113.441406 84.4375 113.578125 84.421875 113.679688 L 83.757812 117.433594 Z M 84.746094 115.828125 C 84.769531 115.691406 84.886719 115.589844 85.039062 115.589844 L 85.953125 115.589844 C 86.113281 115.589844 86.191406 115.6875 86.167969 115.828125 L 86 116.800781 C 85.984375 116.894531 85.859375 117.050781 85.703125 117.050781 L 84.785156 117.050781 C 84.628906 117.050781 84.558594 116.894531 84.578125 116.800781 Z M 86.332031 113.453125 C 86.488281 113.453125 86.5625 113.589844 86.546875 113.691406 L 86.371094 114.664062 C 86.355469 114.757812 86.230469 114.917969 86.074219 114.917969 L 85.15625 114.917969 C 85 114.917969 84.929688 114.757812 84.949219 114.664062 L 85.121094 113.691406 C 85.140625 113.59375 85.261719 113.453125 85.414062 113.453125 Z M 105.273438 113.453125 C 105.367188 113.453125 105.480469 113.589844 105.464844 113.691406 L 104.113281 121.335938 C 104.089844 121.472656 103.957031 121.667969 103.84375 121.765625 L 101.667969 123.613281 C 101.554688 123.710938 101.347656 123.769531 101.210938 123.769531 L 99.851562 123.769531 C 99.757812 123.769531 99.578125 123.90625 99.546875 124.0625 L 98.425781 130.425781 C 98.402344 130.5625 98.285156 130.664062 98.148438 130.664062 L 90.304688 130.664062 C 90.171875 130.664062 90.03125 130.566406 90.054688 130.425781 L 91.175781 124.0625 C 91.207031 123.90625 91.132812 123.769531 90.996094 123.769531 L 87.046875 123.769531 C 86.910156 123.769531 86.832031 123.675781 86.855469 123.519531 L 88.128906 116.28125 C 88.160156 116.125 88.269531 116.03125 88.40625 116.03125 L 96.441406 116.03125 C 96.574219 116.03125 96.691406 115.933594 96.714844 115.792969 L 97.085938 113.691406 C 97.101562 113.59375 97.226562 113.453125 97.378906 113.453125 Z M 124.269531 114.71875 C 124.363281 114.71875 124.480469 114.816406 124.460938 114.957031 L 122.121094 128.222656 C 122.09375 128.382812 121.976562 128.515625 121.855469 128.613281 L 119.667969 130.515625 C 119.558594 130.613281 119.355469 130.652344 119.21875 130.652344 L 105.058594 130.652344 C 104.921875 130.652344 104.84375 130.554688 104.867188 130.417969 L 105.929688 124.382812 C 105.945312 124.289062 106.070312 124.148438 106.207031 124.148438 L 114.238281 124.148438 C 114.375 124.148438 114.492188 124.050781 114.515625 123.894531 L 115.335938 119.222656 C 115.359375 119.085938 115.277344 118.988281 115.144531 118.988281 L 112.710938 118.988281 C 112.550781 118.988281 112.441406 119.082031 112.417969 119.222656 L 111.855469 122.394531 C 111.832031 122.527344 111.714844 122.628906 111.578125 122.628906 L 106.464844 122.628906 C 106.328125 122.628906 106.25 122.535156 106.273438 122.394531 L 107.589844 114.945312 C 107.609375 114.808594 107.730469 114.707031 107.863281 114.707031 L 111.910156 114.707031 C 112.046875 114.707031 112.171875 114.550781 112.1875 114.457031 L 112.320312 113.679688 C 112.339844 113.582031 112.460938 113.441406 112.613281 113.441406 L 120.496094 113.441406 C 120.632812 113.441406 120.703125 113.578125 120.6875 113.679688 L 120.550781 114.457031 C 120.535156 114.550781 120.601562 114.707031 120.761719 114.707031 L 124.261719 114.707031 Z M 140.644531 120.652344 C 140.628906 120.746094 140.464844 120.886719 140.371094 120.886719 L 140.078125 120.886719 C 139.921875 120.886719 139.808594 120.980469 139.78125 121.140625 L 138.144531 130.421875 C 138.121094 130.554688 137.964844 130.65625 137.867188 130.65625 L 131.835938 130.65625 C 131.679688 130.65625 131.601562 130.5625 131.621094 130.421875 L 133.257812 121.140625 C 133.285156 120.980469 133.207031 120.886719 133.066406 120.886719 L 132.230469 120.886719 C 132.09375 120.886719 131.976562 120.980469 131.953125 121.140625 L 130.621094 128.707031 C 130.59375 128.863281 130.464844 129.054688 130.347656 129.15625 L 128.78125 130.515625 C 128.671875 130.613281 128.46875 130.652344 128.332031 130.652344 L 124.925781 130.652344 C 124.832031 130.652344 124.691406 130.554688 124.710938 130.417969 L 125.59375 125.417969 C 125.625 125.261719 125.796875 125.164062 125.894531 125.164062 L 126.574219 125.164062 C 126.667969 125.164062 126.832031 125.03125 126.847656 124.929688 L 127.519531 121.132812 C 127.546875 120.976562 127.429688 120.882812 127.328125 120.882812 L 126.6875 120.882812 C 126.550781 120.882812 126.417969 120.746094 126.433594 120.644531 L 126.988281 117.472656 C 127.007812 117.378906 127.1875 117.238281 127.320312 117.238281 L 133.703125 117.238281 C 133.835938 117.238281 133.957031 117.140625 133.976562 116.984375 L 134.066406 116.460938 C 134.097656 116.304688 134.207031 116.210938 134.367188 116.210938 L 140.398438 116.210938 C 140.492188 116.210938 140.613281 116.304688 140.589844 116.460938 L 140.5 116.984375 C 140.472656 117.140625 140.550781 117.238281 140.707031 117.238281 L 141 117.238281 C 141.09375 117.238281 141.207031 117.371094 141.191406 117.472656 L 140.632812 120.644531 Z M 160.746094 116.570312 C 160.878906 116.570312 160.964844 116.664062 160.933594 116.804688 L 158.910156 128.285156 C 158.890625 128.421875 158.753906 128.617188 158.640625 128.710938 L 156.476562 130.523438 C 156.363281 130.617188 156.164062 130.65625 156.027344 130.65625 L 142.214844 130.65625 C 142.058594 130.65625 141.976562 130.5625 142 130.421875 L 144.953125 113.691406 C 144.972656 113.554688 145.09375 113.453125 145.246094 113.453125 L 153.125 113.453125 C 153.222656 113.453125 153.339844 113.550781 153.316406 113.691406 L 151.726562 122.695312 C 151.710938 122.792969 151.78125 122.933594 151.941406 122.933594 L 154.3125 122.933594 C 154.46875 122.933594 154.589844 122.796875 154.605469 122.695312 L 155.644531 116.800781 C 155.667969 116.664062 155.824219 116.5625 155.921875 116.5625 L 160.746094 116.5625 Z M 178.054688 116.214844 C 178.1875 116.214844 178.269531 116.308594 178.246094 116.46875 L 176.109375 128.570312 C 176.085938 128.707031 175.953125 128.902344 175.839844 129 L 174.074219 130.515625 C 173.960938 130.613281 173.757812 130.652344 173.664062 130.652344 L 161.835938 130.652344 C 161.699219 130.652344 161.617188 130.554688 161.644531 130.417969 L 162.519531 125.453125 C 162.542969 125.316406 162.660156 125.214844 162.796875 125.214844 L 170.480469 125.214844 C 170.640625 125.214844 170.75 125.121094 170.78125 124.960938 L 172.28125 116.460938 C 172.308594 116.304688 172.421875 116.210938 172.554688 116.210938 L 178.058594 116.210938 Z M 166.167969 124.058594 C 166.148438 124.191406 166.027344 124.292969 165.878906 124.292969 L 162.960938 124.292969 C 162.824219 124.292969 162.738281 124.199219 162.769531 124.058594 L 164.105469 116.46875 C 164.132812 116.308594 164.246094 116.214844 164.386719 116.214844 L 167.304688 116.214844 C 167.460938 116.214844 167.542969 116.308594 167.511719 116.46875 L 166.175781 124.058594 Z M 169.902344 124.058594 C 169.878906 124.191406 169.761719 124.292969 169.628906 124.292969 L 167.390625 124.292969 C 167.230469 124.292969 167.152344 124.199219 167.175781 124.058594 L 168.515625 116.46875 C 168.542969 116.308594 168.65625 116.214844 168.8125 116.214844 L 171.050781 116.214844 C 171.183594 116.214844 171.261719 116.308594 171.242188 116.46875 Z M 196.515625 125.417969 C 196.496094 125.554688 196.375 125.652344 196.226562 125.652344 L 188.832031 125.652344 C 188.734375 125.652344 188.578125 125.75 188.554688 125.890625 L 187.757812 130.421875 C 187.734375 130.554688 187.617188 130.65625 187.464844 130.65625 L 179.003906 130.65625 C 178.871094 130.65625 178.789062 130.5625 178.8125 130.421875 L 181.765625 113.691406 C 181.78125 113.59375 181.90625 113.453125 182.039062 113.453125 L 190.5 113.453125 C 190.660156 113.453125 190.730469 113.589844 190.714844 113.691406 L 190.019531 117.636719 C 189.996094 117.773438 190.113281 117.875 190.210938 117.875 L 197.601562 117.875 C 197.757812 117.875 197.828125 118.03125 197.808594 118.125 L 196.523438 125.421875 Z M 196.515625 125.417969 " fill-opacity="1" fill-rule="nonzero"/></svg>