<svg xmlns="http://www.w3.org/2000/svg" viewBox="0 0 329.27 136.74"><defs><style>.cls-1{fill:#c5171e;}</style></defs><g id="レイヤー_2" data-name="レイヤー 2"><g id="レイヤー_1-2" data-name="レイヤー 1"><path class="cls-1" d="M212,36.59c5.35-11.11,11.33-23.37,11.33-23.37L245.05,0H201s-8.88,21.73-15.94,31S159,39.12,159,39.12L148.15,64.84a123.38,123.38,0,0,0,23.08-1L154.44,99.43h56L182.92,87.92,199,53.78a57,57,0,0,0,13-17.19M58.3,33.39l3.3-7h61.91l6.41-13L166.39,2.78H25.11L13.46,26.38h21L0,99.43H51.8L31,91.25,47.17,57h47L82.31,82.24h-.08s-48.18,36.58-80.6,51.25c0,0,59.77-24.27,99.61-27.53l7.93-17.57,21.07-44.7,23.53-10.29ZM275.48,82.23C268,69.6,264.86,58.59,264.34,49h20.5L292,33.69l23.3-8.27H268.53a86.92,86.92,0,0,1,9.67-16.6L309.53,0H254.29a162.26,162.26,0,0,0-11.53,25.42h-18L213.05,49h24.36c-.07,1.06-.13,2.1-.15,3.14-.36,22.28,6.52,43.11,19.56,56.33,0,0,45.83,11.05,72.45,28.25,0,0-35.66-23.84-53.79-54.51m9.36-60.75H310.2l6.39-13.69H291.24Z"/><path class="cls-1" d="M139,113.45l-7.6,19.49h4.18l1.61-4.43h7.79l1.7,4.43h4.28l-7.8-19.49Zm-.6,11.78L141,118l2.69,7.24ZM120,126.74l-3.54-13.29h-5.89v19.49h3.66V117.6L118,132.94h3.79l3.87-15.34v15.34h3.66V113.45h-5.9Zm44.85-.28-8-13H153v19.49h3.65V120.23l7.86,12.71h3.95V113.45h-3.66Zm46.05,6.48h3.93V113.45h-3.93Zm-14-19.49-7.59,19.49h4.18l1.6-4.43h7.8l1.7,4.43h4.28L201,113.45Zm-.6,11.78,2.64-7.24,2.68,7.24Zm-9.94-9.62a6.5,6.5,0,0,0-2.93-1.79,14,14,0,0,0-3.71-.37h-7.2v19.49h7.41a12.08,12.08,0,0,0,3.48-.41,6.85,6.85,0,0,0,2.77-1.56,8.66,8.66,0,0,0,2.09-3.44,12.82,12.82,0,0,0,.59-4.15,14.58,14.58,0,0,0-.63-4.61,8.59,8.59,0,0,0-1.87-3.16m-2,11.17a4.18,4.18,0,0,1-1,1.88,3.64,3.64,0,0,1-1.59.81,10.93,10.93,0,0,1-2.38.19h-2.94V116.74h1.77a18.15,18.15,0,0,1,3.23.19,3.8,3.8,0,0,1,1.82.92,4.47,4.47,0,0,1,1.12,1.89,11.79,11.79,0,0,1,.4,3.47,13,13,0,0,1-.4,3.57"/></g></g></svg>